<svg width="960" height="210" viewBox="0 0 960 210" xmlns="http://www.w3.org/2000/svg">
  <defs>
    <linearGradient id="areaGrad" x1="0" y1="0" x2="0" y2="1">
      <stop offset="0%" stop-color="#00f5d4" stop-opacity="0.4"/>
      <stop offset="100%" stop-color="#00f5d4" stop-opacity="0.02"/>
    </linearGradient>
  </defs>
  <rect width="960" height="210" fill="#060a0f" rx="8"/>
  <text x="14" y="16" font-family="DM Mono,monospace" font-size="9" fill="#007a6a" letter-spacing="3">// M2STATION · DAILY COMMIT TREND (90D)</text>
  <text x="946" y="16" text-anchor="end" font-family="DM Mono,monospace" font-size="9" fill="#004a3e">637 COMMITS · PEAK 90 (05-18)</text>
  <line x1="8" y1="24" x2="952" y2="24" stroke="#00f5d4" stroke-width="0.3" opacity="0.3"/>
  <line x1="40" y1="36" x2="920" y2="36" stroke="#00f5d4" stroke-width="0.3" opacity="0.12"/>
    <text x="34" y="39" text-anchor="end" font-family="DM Mono,monospace" font-size="8" fill="#005a4e">90</text><line x1="40" y1="68.5" x2="920" y2="68.5" stroke="#00f5d4" stroke-width="0.3" opacity="0.12"/>
    <text x="34" y="71.5" text-anchor="end" font-family="DM Mono,monospace" font-size="8" fill="#005a4e">68</text><line x1="40" y1="101" x2="920" y2="101" stroke="#00f5d4" stroke-width="0.3" opacity="0.12"/>
    <text x="34" y="104" text-anchor="end" font-family="DM Mono,monospace" font-size="8" fill="#005a4e">45</text><line x1="40" y1="133.5" x2="920" y2="133.5" stroke="#00f5d4" stroke-width="0.3" opacity="0.12"/>
    <text x="34" y="136.5" text-anchor="end" font-family="DM Mono,monospace" font-size="8" fill="#005a4e">23</text><line x1="40" y1="166" x2="920" y2="166" stroke="#00f5d4" stroke-width="0.3" opacity="0.12"/>
    <text x="34" y="169" text-anchor="end" font-family="DM Mono,monospace" font-size="8" fill="#005a4e">0</text>
  <path d="M40.0,166.0 L40.0,166.0 L49.9,166.0 L59.8,151.6 L69.7,166.0 L79.6,160.2 L89.4,155.9 L99.3,166.0 L109.2,166.0 L119.1,166.0 L129.0,163.1 L138.9,166.0 L148.8,153.0 L158.7,166.0 L168.5,163.1 L178.4,166.0 L188.3,166.0 L198.2,155.9 L208.1,160.2 L218.0,160.2 L227.9,157.3 L237.8,166.0 L247.6,166.0 L257.5,166.0 L267.4,166.0 L277.3,161.7 L287.2,161.7 L297.1,163.1 L307.0,154.4 L316.9,166.0 L326.7,166.0 L336.6,158.8 L346.5,151.6 L356.4,164.6 L366.3,161.7 L376.2,160.2 L386.1,166.0 L396.0,166.0 L405.8,164.6 L415.7,164.6 L425.6,166.0 L435.5,160.2 L445.4,145.8 L455.3,166.0 L465.2,166.0 L475.1,140.0 L484.9,140.0 L494.8,151.6 L504.7,151.6 L514.6,166.0 L524.5,166.0 L534.4,166.0 L544.3,161.7 L554.2,150.1 L564.0,164.6 L573.9,161.7 L583.8,158.8 L593.7,166.0 L603.6,166.0 L613.5,166.0 L623.4,147.2 L633.3,157.3 L643.1,164.6 L653.0,155.9 L662.9,164.6 L672.8,166.0 L682.7,36.0 L692.6,134.2 L702.5,134.2 L712.4,148.7 L722.2,151.6 L732.1,164.6 L742.0,166.0 L751.9,150.1 L761.8,166.0 L771.7,163.1 L781.6,157.3 L791.5,154.4 L801.3,148.7 L811.2,166.0 L821.1,144.3 L831.0,147.2 L840.9,108.2 L850.8,101.0 L860.7,82.2 L870.6,164.6 L880.4,119.8 L890.3,163.1 L900.2,158.8 L910.1,164.6 L920.0,154.4 L920.0,166.0 Z" fill="url(#areaGrad)"/>
  <path d="M40.0,166.0 L49.9,166.0 L59.8,151.6 L69.7,166.0 L79.6,160.2 L89.4,155.9 L99.3,166.0 L109.2,166.0 L119.1,166.0 L129.0,163.1 L138.9,166.0 L148.8,153.0 L158.7,166.0 L168.5,163.1 L178.4,166.0 L188.3,166.0 L198.2,155.9 L208.1,160.2 L218.0,160.2 L227.9,157.3 L237.8,166.0 L247.6,166.0 L257.5,166.0 L267.4,166.0 L277.3,161.7 L287.2,161.7 L297.1,163.1 L307.0,154.4 L316.9,166.0 L326.7,166.0 L336.6,158.8 L346.5,151.6 L356.4,164.6 L366.3,161.7 L376.2,160.2 L386.1,166.0 L396.0,166.0 L405.8,164.6 L415.7,164.6 L425.6,166.0 L435.5,160.2 L445.4,145.8 L455.3,166.0 L465.2,166.0 L475.1,140.0 L484.9,140.0 L494.8,151.6 L504.7,151.6 L514.6,166.0 L524.5,166.0 L534.4,166.0 L544.3,161.7 L554.2,150.1 L564.0,164.6 L573.9,161.7 L583.8,158.8 L593.7,166.0 L603.6,166.0 L613.5,166.0 L623.4,147.2 L633.3,157.3 L643.1,164.6 L653.0,155.9 L662.9,164.6 L672.8,166.0 L682.7,36.0 L692.6,134.2 L702.5,134.2 L712.4,148.7 L722.2,151.6 L732.1,164.6 L742.0,166.0 L751.9,150.1 L761.8,166.0 L771.7,163.1 L781.6,157.3 L791.5,154.4 L801.3,148.7 L811.2,166.0 L821.1,144.3 L831.0,147.2 L840.9,108.2 L850.8,101.0 L860.7,82.2 L870.6,164.6 L880.4,119.8 L890.3,163.1 L900.2,158.8 L910.1,164.6 L920.0,154.4" fill="none" stroke="#00f5d4" stroke-width="1.5" stroke-linejoin="round" stroke-linecap="round"
    stroke-dasharray="2000" stroke-dashoffset="2000">
    <animate attributeName="stroke-dashoffset" from="2000" to="0" dur="2s" fill="freeze" calcMode="spline" keySplines="0.4 0 0.2 1" keyTimes="0;1"/>
  </path>
  <circle cx="682.7" cy="36.0" r="3" fill="#ff4db8">
    <animate attributeName="opacity" values="0;1" begin="2s" dur="0.4s" fill="freeze"/>
  </circle>
  <text x="40.0" y="188" text-anchor="middle" font-family="DM Mono,monospace" font-size="8" fill="#005a4e">03-14</text><text x="218.0" y="188" text-anchor="middle" font-family="DM Mono,monospace" font-size="8" fill="#005a4e">04-01</text><text x="514.6" y="188" text-anchor="middle" font-family="DM Mono,monospace" font-size="8" fill="#005a4e">05-01</text><text x="821.1" y="188" text-anchor="middle" font-family="DM Mono,monospace" font-size="8" fill="#005a4e">06-01</text>
  <text x="480" y="203" text-anchor="middle" font-family="DM Mono,monospace" font-size="7" fill="#003a30">M2Station · UPDATED 2026-06-11 14:53 TWN</text>
</svg>