<svg width="480" height="428" viewBox="0 0 480 428" xmlns="http://www.w3.org/2000/svg">
  <rect width="480" height="428" fill="#060a0f" rx="8"/>
  <text x="12" y="14" font-family="DM Mono,monospace" font-size="9" fill="#007a6a" letter-spacing="3">// M2STATION · MEMBER LEADERBOARD</text>
  <text x="468" y="14" text-anchor="end" font-family="DM Mono,monospace" font-size="9" fill="#004a3e">97 DEVS · 4912 COMMITS</text>
  <line x1="8" y1="22" x2="472" y2="22" stroke="#00f5d4" stroke-width="0.3" opacity="0.3"/>
  <g transform="translate(0,24)">
    <text x="14" y="38" font-family="Orbitron,monospace" font-size="13" font-weight="700" fill="#ffd700">1</text>
    <text x="32" y="38" font-family="DM Mono,monospace" font-size="12" fill="#00c9a7">oa</text>
    <rect x="150" y="26" width="280" height="16" fill="#00f5d4" opacity="0.07" rx="2"/>
    <rect x="150" y="26" width="280" height="16" fill="#00f5d4" opacity="0.6" rx="2">
      <animate attributeName="width" from="0" to="280" dur="1.2s" begin="0.00s" fill="freeze"/>
    </rect>
    <text x="434" y="38" font-family="DM Mono,monospace" font-size="11" fill="#00f5d4">1159</text>
    <text x="14" y="76" font-family="Orbitron,monospace" font-size="13" font-weight="700" fill="#c0c0c0">2</text>
    <text x="32" y="76" font-family="DM Mono,monospace" font-size="12" fill="#00c9a7">OA Hsiao</text>
    <rect x="150" y="64" width="280" height="16" fill="#00f5d4" opacity="0.07" rx="2"/>
    <rect x="150" y="64" width="266" height="16" fill="#00f5d4" opacity="0.6" rx="2">
      <animate attributeName="width" from="0" to="266" dur="1.2s" begin="0.08s" fill="freeze"/>
    </rect>
    <text x="420" y="76" font-family="DM Mono,monospace" font-size="11" fill="#00f5d4">1103</text>
    <text x="14" y="114" font-family="Orbitron,monospace" font-size="13" font-weight="700" fill="#cd7f32">3</text>
    <text x="32" y="114" font-family="DM Mono,monospace" font-size="12" fill="#00c9a7">oahsiao</text>
    <rect x="150" y="102" width="280" height="16" fill="#00f5d4" opacity="0.07" rx="2"/>
    <rect x="150" y="102" width="197" height="16" fill="#00f5d4" opacity="0.6" rx="2">
      <animate attributeName="width" from="0" to="197" dur="1.2s" begin="0.16s" fill="freeze"/>
    </rect>
    <text x="351" y="114" font-family="DM Mono,monospace" font-size="11" fill="#00f5d4">815</text>
    <text x="14" y="152" font-family="Orbitron,monospace" font-size="13" font-weight="700" fill="#007a6a">4</text>
    <text x="32" y="152" font-family="DM Mono,monospace" font-size="12" fill="#00c9a7">Your Name</text>
    <rect x="150" y="140" width="280" height="16" fill="#00f5d4" opacity="0.07" rx="2"/>
    <rect x="150" y="140" width="35" height="16" fill="#00f5d4" opacity="0.6" rx="2">
      <animate attributeName="width" from="0" to="35" dur="1.2s" begin="0.24s" fill="freeze"/>
    </rect>
    <text x="189" y="152" font-family="DM Mono,monospace" font-size="11" fill="#00f5d4">145</text>
    <text x="14" y="190" font-family="Orbitron,monospace" font-size="13" font-weight="700" fill="#007a6a">5</text>
    <text x="32" y="190" font-family="DM Mono,monospace" font-size="12" fill="#00c9a7">Oa Hsiao</text>
    <rect x="150" y="178" width="280" height="16" fill="#00f5d4" opacity="0.07" rx="2"/>
    <rect x="150" y="178" width="33" height="16" fill="#00f5d4" opacity="0.6" rx="2">
      <animate attributeName="width" from="0" to="33" dur="1.2s" begin="0.32s" fill="freeze"/>
    </rect>
    <text x="187" y="190" font-family="DM Mono,monospace" font-size="11" fill="#00f5d4">137</text>
    <text x="14" y="228" font-family="Orbitron,monospace" font-size="13" font-weight="700" fill="#007a6a">6</text>
    <text x="32" y="228" font-family="DM Mono,monospace" font-size="12" fill="#00c9a7">pega-asuka</text>
    <rect x="150" y="216" width="280" height="16" fill="#00f5d4" opacity="0.07" rx="2"/>
    <rect x="150" y="216" width="29" height="16" fill="#00f5d4" opacity="0.6" rx="2">
      <animate attributeName="width" from="0" to="29" dur="1.2s" begin="0.40s" fill="freeze"/>
    </rect>
    <text x="183" y="228" font-family="DM Mono,monospace" font-size="11" fill="#00f5d4">118</text>
    <text x="14" y="266" font-family="Orbitron,monospace" font-size="13" font-weight="700" fill="#007a6a">7</text>
    <text x="32" y="266" font-family="DM Mono,monospace" font-size="12" fill="#00c9a7">Andy Sung</text>
    <rect x="150" y="254" width="280" height="16" fill="#00f5d4" opacity="0.07" rx="2"/>
    <rect x="150" y="254" width="27" height="16" fill="#00f5d4" opacity="0.6" rx="2">
      <animate attributeName="width" from="0" to="27" dur="1.2s" begin="0.48s" fill="freeze"/>
    </rect>
    <text x="181" y="266" font-family="DM Mono,monospace" font-size="11" fill="#00f5d4">110</text>
    <text x="14" y="304" font-family="Orbitron,monospace" font-size="13" font-weight="700" fill="#007a6a">8</text>
    <text x="32" y="304" font-family="DM Mono,monospace" font-size="12" fill="#00c9a7">pega-samsu</text>
    <rect x="150" y="292" width="280" height="16" fill="#00f5d4" opacity="0.07" rx="2"/>
    <rect x="150" y="292" width="20" height="16" fill="#00f5d4" opacity="0.6" rx="2">
      <animate attributeName="width" from="0" to="20" dur="1.2s" begin="0.56s" fill="freeze"/>
    </rect>
    <text x="174" y="304" font-family="DM Mono,monospace" font-size="11" fill="#00f5d4">84</text>
    <text x="14" y="342" font-family="Orbitron,monospace" font-size="13" font-weight="700" fill="#007a6a">9</text>
    <text x="32" y="342" font-family="DM Mono,monospace" font-size="12" fill="#00c9a7">Sam6Su</text>
    <rect x="150" y="330" width="280" height="16" fill="#00f5d4" opacity="0.07" rx="2"/>
    <rect x="150" y="330" width="20" height="16" fill="#00f5d4" opacity="0.6" rx="2">
      <animate attributeName="width" from="0" to="20" dur="1.2s" begin="0.64s" fill="freeze"/>
    </rect>
    <text x="174" y="342" font-family="DM Mono,monospace" font-size="11" fill="#00f5d4">83</text>
    <text x="14" y="380" font-family="Orbitron,monospace" font-size="13" font-weight="700" fill="#007a6a">10</text>
    <text x="32" y="380" font-family="DM Mono,monospace" font-size="12" fill="#00c9a7">jackl</text>
    <rect x="150" y="368" width="280" height="16" fill="#00f5d4" opacity="0.07" rx="2"/>
    <rect x="150" y="368" width="19" height="16" fill="#00f5d4" opacity="0.6" rx="2">
      <animate attributeName="width" from="0" to="19" dur="1.2s" begin="0.72s" fill="freeze"/>
    </rect>
    <text x="173" y="380" font-family="DM Mono,monospace" font-size="11" fill="#00f5d4">77</text></g>
  <text x="240" y="422" text-anchor="middle" font-family="DM Mono,monospace" font-size="8" fill="#004a3e">M2Station · UPDATED 2026-07-01 14:37 TWN</text>
</svg>