<svg width="960" height="210" viewBox="0 0 960 210" xmlns="http://www.w3.org/2000/svg">
  <defs>
    <linearGradient id="areaGrad" x1="0" y1="0" x2="0" y2="1">
      <stop offset="0%" stop-color="#00f5d4" stop-opacity="0.4"/>
      <stop offset="100%" stop-color="#00f5d4" stop-opacity="0.02"/>
    </linearGradient>
  </defs>
  <rect width="960" height="210" fill="#060a0f" rx="8"/>
  <text x="14" y="16" font-family="DM Mono,monospace" font-size="9" fill="#007a6a" letter-spacing="3">// M2STATION · DAILY COMMIT TREND (90D)</text>
  <text x="946" y="16" text-anchor="end" font-family="DM Mono,monospace" font-size="9" fill="#004a3e">643 COMMITS · PEAK 90 (05-18)</text>
  <line x1="8" y1="24" x2="952" y2="24" stroke="#00f5d4" stroke-width="0.3" opacity="0.3"/>
  <line x1="40" y1="36" x2="920" y2="36" stroke="#00f5d4" stroke-width="0.3" opacity="0.12"/>
    <text x="34" y="39" text-anchor="end" font-family="DM Mono,monospace" font-size="8" fill="#005a4e">90</text><line x1="40" y1="68.5" x2="920" y2="68.5" stroke="#00f5d4" stroke-width="0.3" opacity="0.12"/>
    <text x="34" y="71.5" text-anchor="end" font-family="DM Mono,monospace" font-size="8" fill="#005a4e">68</text><line x1="40" y1="101" x2="920" y2="101" stroke="#00f5d4" stroke-width="0.3" opacity="0.12"/>
    <text x="34" y="104" text-anchor="end" font-family="DM Mono,monospace" font-size="8" fill="#005a4e">45</text><line x1="40" y1="133.5" x2="920" y2="133.5" stroke="#00f5d4" stroke-width="0.3" opacity="0.12"/>
    <text x="34" y="136.5" text-anchor="end" font-family="DM Mono,monospace" font-size="8" fill="#005a4e">23</text><line x1="40" y1="166" x2="920" y2="166" stroke="#00f5d4" stroke-width="0.3" opacity="0.12"/>
    <text x="34" y="169" text-anchor="end" font-family="DM Mono,monospace" font-size="8" fill="#005a4e">0</text>
  <path d="M40.0,166.0 L40.0,153.0 L49.9,147.2 L59.8,137.1 L69.7,163.1 L79.6,166.0 L89.4,166.0 L99.3,151.6 L109.2,166.0 L119.1,160.2 L129.0,155.9 L138.9,166.0 L148.8,166.0 L158.7,166.0 L168.5,163.1 L178.4,166.0 L188.3,153.0 L198.2,166.0 L208.1,163.1 L218.0,166.0 L227.9,166.0 L237.8,155.9 L247.6,160.2 L257.5,160.2 L267.4,157.3 L277.3,166.0 L287.2,166.0 L297.1,166.0 L307.0,166.0 L316.9,161.7 L326.7,161.7 L336.6,163.1 L346.5,154.4 L356.4,166.0 L366.3,166.0 L376.2,158.8 L386.1,151.6 L396.0,164.6 L405.8,161.7 L415.7,160.2 L425.6,166.0 L435.5,166.0 L445.4,164.6 L455.3,164.6 L465.2,166.0 L475.1,160.2 L484.9,145.8 L494.8,166.0 L504.7,166.0 L514.6,140.0 L524.5,140.0 L534.4,151.6 L544.3,151.6 L554.2,166.0 L564.0,166.0 L573.9,166.0 L583.8,161.7 L593.7,150.1 L603.6,164.6 L613.5,161.7 L623.4,158.8 L633.3,166.0 L643.1,166.0 L653.0,166.0 L662.9,147.2 L672.8,157.3 L682.7,164.6 L692.6,155.9 L702.5,164.6 L712.4,166.0 L722.2,36.0 L732.1,134.2 L742.0,134.2 L751.9,148.7 L761.8,151.6 L771.7,164.6 L781.6,166.0 L791.5,150.1 L801.3,166.0 L811.2,163.1 L821.1,157.3 L831.0,154.4 L840.9,148.7 L850.8,166.0 L860.7,144.3 L870.6,147.2 L880.4,108.2 L890.3,101.0 L900.2,82.2 L910.1,164.6 L920.0,151.6 L920.0,166.0 Z" fill="url(#areaGrad)"/>
  <path d="M40.0,153.0 L49.9,147.2 L59.8,137.1 L69.7,163.1 L79.6,166.0 L89.4,166.0 L99.3,151.6 L109.2,166.0 L119.1,160.2 L129.0,155.9 L138.9,166.0 L148.8,166.0 L158.7,166.0 L168.5,163.1 L178.4,166.0 L188.3,153.0 L198.2,166.0 L208.1,163.1 L218.0,166.0 L227.9,166.0 L237.8,155.9 L247.6,160.2 L257.5,160.2 L267.4,157.3 L277.3,166.0 L287.2,166.0 L297.1,166.0 L307.0,166.0 L316.9,161.7 L326.7,161.7 L336.6,163.1 L346.5,154.4 L356.4,166.0 L366.3,166.0 L376.2,158.8 L386.1,151.6 L396.0,164.6 L405.8,161.7 L415.7,160.2 L425.6,166.0 L435.5,166.0 L445.4,164.6 L455.3,164.6 L465.2,166.0 L475.1,160.2 L484.9,145.8 L494.8,166.0 L504.7,166.0 L514.6,140.0 L524.5,140.0 L534.4,151.6 L544.3,151.6 L554.2,166.0 L564.0,166.0 L573.9,166.0 L583.8,161.7 L593.7,150.1 L603.6,164.6 L613.5,161.7 L623.4,158.8 L633.3,166.0 L643.1,166.0 L653.0,166.0 L662.9,147.2 L672.8,157.3 L682.7,164.6 L692.6,155.9 L702.5,164.6 L712.4,166.0 L722.2,36.0 L732.1,134.2 L742.0,134.2 L751.9,148.7 L761.8,151.6 L771.7,164.6 L781.6,166.0 L791.5,150.1 L801.3,166.0 L811.2,163.1 L821.1,157.3 L831.0,154.4 L840.9,148.7 L850.8,166.0 L860.7,144.3 L870.6,147.2 L880.4,108.2 L890.3,101.0 L900.2,82.2 L910.1,164.6 L920.0,151.6" fill="none" stroke="#00f5d4" stroke-width="1.5" stroke-linejoin="round" stroke-linecap="round"
    stroke-dasharray="2000" stroke-dashoffset="2000">
    <animate attributeName="stroke-dashoffset" from="2000" to="0" dur="2s" fill="freeze" calcMode="spline" keySplines="0.4 0 0.2 1" keyTimes="0;1"/>
  </path>
  <circle cx="722.2" cy="36.0" r="3" fill="#ff4db8">
    <animate attributeName="opacity" values="0;1" begin="2s" dur="0.4s" fill="freeze"/>
  </circle>
  <text x="40.0" y="188" text-anchor="middle" font-family="DM Mono,monospace" font-size="8" fill="#005a4e">03-10</text><text x="257.5" y="188" text-anchor="middle" font-family="DM Mono,monospace" font-size="8" fill="#005a4e">04-01</text><text x="554.2" y="188" text-anchor="middle" font-family="DM Mono,monospace" font-size="8" fill="#005a4e">05-01</text><text x="860.7" y="188" text-anchor="middle" font-family="DM Mono,monospace" font-size="8" fill="#005a4e">06-01</text>
  <text x="480" y="203" text-anchor="middle" font-family="DM Mono,monospace" font-size="7" fill="#003a30">M2Station · UPDATED 2026-06-07 14:34 TWN</text>
</svg>