<svg width="960" height="210" viewBox="0 0 960 210" xmlns="http://www.w3.org/2000/svg">
  <defs>
    <linearGradient id="areaGrad" x1="0" y1="0" x2="0" y2="1">
      <stop offset="0%" stop-color="#00f5d4" stop-opacity="0.4"/>
      <stop offset="100%" stop-color="#00f5d4" stop-opacity="0.02"/>
    </linearGradient>
  </defs>
  <rect width="960" height="210" fill="#060a0f" rx="8"/>
  <text x="14" y="16" font-family="DM Mono,monospace" font-size="9" fill="#007a6a" letter-spacing="3">// M2STATION · DAILY COMMIT TREND (90D)</text>
  <text x="946" y="16" text-anchor="end" font-family="DM Mono,monospace" font-size="9" fill="#004a3e">639 COMMITS · PEAK 90 (05-18)</text>
  <line x1="8" y1="24" x2="952" y2="24" stroke="#00f5d4" stroke-width="0.3" opacity="0.3"/>
  <line x1="40" y1="36" x2="920" y2="36" stroke="#00f5d4" stroke-width="0.3" opacity="0.12"/>
    <text x="34" y="39" text-anchor="end" font-family="DM Mono,monospace" font-size="8" fill="#005a4e">90</text><line x1="40" y1="68.5" x2="920" y2="68.5" stroke="#00f5d4" stroke-width="0.3" opacity="0.12"/>
    <text x="34" y="71.5" text-anchor="end" font-family="DM Mono,monospace" font-size="8" fill="#005a4e">68</text><line x1="40" y1="101" x2="920" y2="101" stroke="#00f5d4" stroke-width="0.3" opacity="0.12"/>
    <text x="34" y="104" text-anchor="end" font-family="DM Mono,monospace" font-size="8" fill="#005a4e">45</text><line x1="40" y1="133.5" x2="920" y2="133.5" stroke="#00f5d4" stroke-width="0.3" opacity="0.12"/>
    <text x="34" y="136.5" text-anchor="end" font-family="DM Mono,monospace" font-size="8" fill="#005a4e">23</text><line x1="40" y1="166" x2="920" y2="166" stroke="#00f5d4" stroke-width="0.3" opacity="0.12"/>
    <text x="34" y="169" text-anchor="end" font-family="DM Mono,monospace" font-size="8" fill="#005a4e">0</text>
  <path d="M40.0,166.0 L40.0,166.0 L49.9,151.6 L59.8,166.0 L69.7,160.2 L79.6,155.9 L89.4,166.0 L99.3,166.0 L109.2,166.0 L119.1,163.1 L129.0,166.0 L138.9,153.0 L148.8,166.0 L158.7,163.1 L168.5,166.0 L178.4,166.0 L188.3,155.9 L198.2,160.2 L208.1,160.2 L218.0,157.3 L227.9,166.0 L237.8,166.0 L247.6,166.0 L257.5,166.0 L267.4,161.7 L277.3,161.7 L287.2,163.1 L297.1,154.4 L307.0,166.0 L316.9,166.0 L326.7,158.8 L336.6,151.6 L346.5,164.6 L356.4,161.7 L366.3,160.2 L376.2,166.0 L386.1,166.0 L396.0,164.6 L405.8,164.6 L415.7,166.0 L425.6,160.2 L435.5,145.8 L445.4,166.0 L455.3,166.0 L465.2,140.0 L475.1,140.0 L484.9,151.6 L494.8,151.6 L504.7,166.0 L514.6,166.0 L524.5,166.0 L534.4,161.7 L544.3,150.1 L554.2,164.6 L564.0,161.7 L573.9,158.8 L583.8,166.0 L593.7,166.0 L603.6,166.0 L613.5,147.2 L623.4,157.3 L633.3,164.6 L643.1,155.9 L653.0,164.6 L662.9,166.0 L672.8,36.0 L682.7,134.2 L692.6,134.2 L702.5,148.7 L712.4,151.6 L722.2,164.6 L732.1,166.0 L742.0,150.1 L751.9,166.0 L761.8,163.1 L771.7,157.3 L781.6,154.4 L791.5,148.7 L801.3,166.0 L811.2,144.3 L821.1,147.2 L831.0,108.2 L840.9,101.0 L850.8,82.2 L860.7,164.6 L870.6,119.8 L880.4,163.1 L890.3,158.8 L900.2,164.6 L910.1,153.0 L920.0,164.6 L920.0,166.0 Z" fill="url(#areaGrad)"/>
  <path d="M40.0,166.0 L49.9,151.6 L59.8,166.0 L69.7,160.2 L79.6,155.9 L89.4,166.0 L99.3,166.0 L109.2,166.0 L119.1,163.1 L129.0,166.0 L138.9,153.0 L148.8,166.0 L158.7,163.1 L168.5,166.0 L178.4,166.0 L188.3,155.9 L198.2,160.2 L208.1,160.2 L218.0,157.3 L227.9,166.0 L237.8,166.0 L247.6,166.0 L257.5,166.0 L267.4,161.7 L277.3,161.7 L287.2,163.1 L297.1,154.4 L307.0,166.0 L316.9,166.0 L326.7,158.8 L336.6,151.6 L346.5,164.6 L356.4,161.7 L366.3,160.2 L376.2,166.0 L386.1,166.0 L396.0,164.6 L405.8,164.6 L415.7,166.0 L425.6,160.2 L435.5,145.8 L445.4,166.0 L455.3,166.0 L465.2,140.0 L475.1,140.0 L484.9,151.6 L494.8,151.6 L504.7,166.0 L514.6,166.0 L524.5,166.0 L534.4,161.7 L544.3,150.1 L554.2,164.6 L564.0,161.7 L573.9,158.8 L583.8,166.0 L593.7,166.0 L603.6,166.0 L613.5,147.2 L623.4,157.3 L633.3,164.6 L643.1,155.9 L653.0,164.6 L662.9,166.0 L672.8,36.0 L682.7,134.2 L692.6,134.2 L702.5,148.7 L712.4,151.6 L722.2,164.6 L732.1,166.0 L742.0,150.1 L751.9,166.0 L761.8,163.1 L771.7,157.3 L781.6,154.4 L791.5,148.7 L801.3,166.0 L811.2,144.3 L821.1,147.2 L831.0,108.2 L840.9,101.0 L850.8,82.2 L860.7,164.6 L870.6,119.8 L880.4,163.1 L890.3,158.8 L900.2,164.6 L910.1,153.0 L920.0,164.6" fill="none" stroke="#00f5d4" stroke-width="1.5" stroke-linejoin="round" stroke-linecap="round"
    stroke-dasharray="2000" stroke-dashoffset="2000">
    <animate attributeName="stroke-dashoffset" from="2000" to="0" dur="2s" fill="freeze" calcMode="spline" keySplines="0.4 0 0.2 1" keyTimes="0;1"/>
  </path>
  <circle cx="672.8" cy="36.0" r="3" fill="#ff4db8">
    <animate attributeName="opacity" values="0;1" begin="2s" dur="0.4s" fill="freeze"/>
  </circle>
  <text x="40.0" y="188" text-anchor="middle" font-family="DM Mono,monospace" font-size="8" fill="#005a4e">03-15</text><text x="208.1" y="188" text-anchor="middle" font-family="DM Mono,monospace" font-size="8" fill="#005a4e">04-01</text><text x="504.7" y="188" text-anchor="middle" font-family="DM Mono,monospace" font-size="8" fill="#005a4e">05-01</text><text x="811.2" y="188" text-anchor="middle" font-family="DM Mono,monospace" font-size="8" fill="#005a4e">06-01</text>
  <text x="480" y="203" text-anchor="middle" font-family="DM Mono,monospace" font-size="7" fill="#003a30">M2Station · UPDATED 2026-06-12 14:46 TWN</text>
</svg>