<svg width="480" height="160" viewBox="0 0 480 160" xmlns="http://www.w3.org/2000/svg">
  <rect width="480" height="160" fill="#060a0f" rx="8"/>
  <text x="12" y="14" font-family="DM Mono,monospace" font-size="9" fill="#007a6a" letter-spacing="3">// M2STATION · LANGUAGE BREAKDOWN</text>
  <line x1="8" y1="22" x2="472" y2="22" stroke="#00f5d4" stroke-width="0.3" opacity="0.3"/>
  <path d="M80,78 L80.0,18.0 A60,60 0 0 1 124.3,118.5 Z"
      fill="#3572A5" opacity="0.85" stroke="#060a0f" stroke-width="1.5"/><path d="M80,78 L124.3,118.5 A60,60 0 0 1 70.6,137.3 Z"
      fill="#f1e05a" opacity="0.85" stroke="#060a0f" stroke-width="1.5"/><path d="M80,78 L70.6,137.3 A60,60 0 0 1 30.0,111.1 Z"
      fill="#178600" opacity="0.85" stroke="#060a0f" stroke-width="1.5"/><path d="M80,78 L30.0,111.1 A60,60 0 0 1 20.2,73.1 Z"
      fill="#555555" opacity="0.85" stroke="#060a0f" stroke-width="1.5"/><path d="M80,78 L20.2,73.1 A60,60 0 0 1 26.9,50.1 Z"
      fill="#e34c26" opacity="0.85" stroke="#060a0f" stroke-width="1.5"/><path d="M80,78 L26.9,50.1 A60,60 0 0 1 39.5,33.7 Z"
      fill="#888" opacity="0.85" stroke="#060a0f" stroke-width="1.5"/><path d="M80,78 L39.5,33.7 A60,60 0 0 1 46.9,28.0 Z"
      fill="#4F5D95" opacity="0.85" stroke="#060a0f" stroke-width="1.5"/><path d="M80,78 L46.9,28.0 A60,60 0 0 1 53.1,24.4 Z"
      fill="#012456" opacity="0.85" stroke="#060a0f" stroke-width="1.5"/><path d="M80,78 L53.1,24.4 A60,60 0 0 1 59.7,21.5 Z"
      fill="#663399" opacity="0.85" stroke="#060a0f" stroke-width="1.5"/><path d="M80,78 L59.7,21.5 A60,60 0 0 1 64.0,20.2 Z"
      fill="#dea584" opacity="0.85" stroke="#060a0f" stroke-width="1.5"/>
  <circle cx="80" cy="78" r="34" fill="#060a0f"/>
  <text x="80" y="74" text-anchor="middle" font-family="DM Mono,monospace" font-size="9" fill="#00f5d4">LANG</text>
  <text x="80" y="88" text-anchor="middle" font-family="DM Mono,monospace" font-size="9" fill="#007a6a">MIX</text>
  <rect x="170" y="36" width="10" height="10" fill="#3572A5" rx="2"/>
    <text x="184" y="45" font-family="DM Mono,monospace" font-size="11" fill="#00b890">Python</text>
    <text x="290" y="45" text-anchor="end" font-family="DM Mono,monospace" font-size="10" fill="#007a6a">36.8%</text><rect x="320" y="36" width="10" height="10" fill="#f1e05a" rx="2"/>
    <text x="334" y="45" font-family="DM Mono,monospace" font-size="11" fill="#00b890">JavaScript</text>
    <text x="440" y="45" text-anchor="end" font-family="DM Mono,monospace" font-size="10" fill="#007a6a">15.7%</text><rect x="170" y="58" width="10" height="10" fill="#178600" rx="2"/>
    <text x="184" y="67" font-family="DM Mono,monospace" font-size="11" fill="#00b890">C#</text>
    <text x="290" y="67" text-anchor="end" font-family="DM Mono,monospace" font-size="10" fill="#007a6a">13.2%</text><rect x="320" y="58" width="10" height="10" fill="#555555" rx="2"/>
    <text x="334" y="67" font-family="DM Mono,monospace" font-size="11" fill="#00b890">C</text>
    <text x="440" y="67" text-anchor="end" font-family="DM Mono,monospace" font-size="10" fill="#007a6a">10.6%</text><rect x="170" y="80" width="10" height="10" fill="#e34c26" rx="2"/>
    <text x="184" y="89" font-family="DM Mono,monospace" font-size="11" fill="#00b890">HTML</text>
    <text x="290" y="89" text-anchor="end" font-family="DM Mono,monospace" font-size="10" fill="#007a6a">6.4%</text><rect x="320" y="80" width="10" height="10" fill="#888" rx="2"/>
    <text x="334" y="89" font-family="DM Mono,monospace" font-size="11" fill="#00b890">ASL</text>
    <text x="440" y="89" text-anchor="end" font-family="DM Mono,monospace" font-size="10" fill="#007a6a">5.5%</text><rect x="170" y="102" width="10" height="10" fill="#4F5D95" rx="2"/>
    <text x="184" y="111" font-family="DM Mono,monospace" font-size="11" fill="#00b890">PHP</text>
    <text x="290" y="111" text-anchor="end" font-family="DM Mono,monospace" font-size="10" fill="#007a6a">2.5%</text><rect x="320" y="102" width="10" height="10" fill="#012456" rx="2"/>
    <text x="334" y="111" font-family="DM Mono,monospace" font-size="11" fill="#00b890">PowerShell</text>
    <text x="440" y="111" text-anchor="end" font-family="DM Mono,monospace" font-size="10" fill="#007a6a">1.9%</text>
  <text x="240" y="154" text-anchor="middle" font-family="DM Mono,monospace" font-size="8" fill="#004a3e">oahsiao @ M2Station · UPDATED 2026-06-02 17:07 TWN</text>
</svg>